<svg xmlns="http://www.w3.org/2000/svg" viewBox="0 0 16.04 16.04" style="enable-background:new 0 0 16.04 16.04" xml:space="preserve"><path d="M12.76 7.11c-2.58-1.54-6.85-1.68-9.32-.93a.75.75 0 0 1-.94-.5c-.12-.4.1-.82.5-.94 2.83-.86 7.54-.69 10.52 1.07.36.21.47.67.26 1.03-.2.36-.66.48-1.02.27m-.08 2.27c-.18.29-.57.39-.86.21-2.16-1.33-5.44-1.71-7.99-.94-.33.1-.68-.08-.78-.41-.1-.33.09-.68.42-.78 2.91-.89 6.53-.46 9 1.06.3.18.39.57.21.86m-.98 2.19c-.14.24-.45.31-.69.17-1.88-1.15-4.25-1.41-7.04-.77a.505.505 0 0 1-.23-.98c3.05-.7 5.67-.4 7.79.89.24.14.31.45.17.69M8.02 0A8.02 8.02 0 0 0 0 8.02a8.02 8.02 0 0 0 8.02 8.02 8.02 8.02 0 0 0 8.02-8.02A8.02 8.02 0 0 0 8.02 0" style="fill:#fff"/></svg>