<?xml version="1.0" standalone="no"?>
<!DOCTYPE svg PUBLIC "-//W3C//DTD SVG 20010904//EN"
 "http://www.w3.org/TR/2001/REC-SVG-20010904/DTD/svg10.dtd">
<svg version="1.0" xmlns="http://www.w3.org/2000/svg"
 width="400.000000pt" height="400.000000pt" viewBox="0 0 400.000000 400.000000"
 preserveAspectRatio="xMidYMid meet">
<metadata>
Created by potrace 1.14, written by Peter Selinger 2001-2017
</metadata>
<g transform="translate(0.000000,400.000000) scale(0.100000,-0.100000)"
fill="#000000" stroke="none">
<path d="M783 3536 c5 -14 3 -16 -12 -11 -10 3 -23 -1 -30 -9 -16 -19 -76 -39
-121 -40 -31 -1 -35 -5 -38 -28 -2 -18 -9 -28 -20 -28 -15 0 -15 2 -2 10 9 6
10 10 3 10 -6 0 -18 -9 -26 -20 -11 -17 -19 -19 -38 -11 -17 6 -34 5 -54 -4
l-30 -13 30 -3 c17 -1 40 -1 53 0 32 3 27 -15 -8 -28 -17 -5 -30 -17 -30 -25
0 -8 -14 -26 -30 -40 -67 -56 -84 -86 -93 -160 -12 -99 -11 -132 7 -201 8 -33
20 -87 26 -120 5 -33 22 -89 35 -125 26 -65 26 -65 20 -20 -3 25 -8 85 -12
133 -7 98 -1 110 49 100 37 -7 87 5 68 17 -12 7 -11 12 3 28 19 21 24 43 5 24
-21 -21 -40 -15 -33 11 13 44 44 60 107 54 58 -5 58 -5 35 14 -26 21 -23 22
21 10 36 -11 39 -9 16 14 -22 22 -14 27 44 27 37 -1 65 -9 106 -32 31 -18 56
-38 56 -46 0 -19 -33 -34 -60 -27 -16 4 -21 3 -16 -5 24 -39 96 14 96 70 0 25
3 28 21 23 17 -6 20 -4 13 6 -10 16 -16 49 -10 49 3 0 16 -4 30 -10 17 -6 24
-14 20 -25 -5 -11 -2 -14 10 -9 9 3 16 2 16 -4 0 -6 -6 -12 -12 -14 -7 -3 1
-5 17 -5 46 -1 58 -6 90 -39 80 -82 115 -125 115 -142 0 -11 26 -46 58 -79 53
-55 79 -99 145 -243 29 -64 72 -108 81 -83 3 8 6 27 6 43 0 38 27 100 44 100
8 0 17 11 20 25 4 14 11 25 16 25 12 0 13 -17 1 -24 -9 -6 -1 -52 14 -89 4
-10 2 -36 -5 -58 -17 -49 -5 -62 24 -26 22 28 56 37 56 15 1 -24 39 67 40 93
0 15 -10 38 -21 53 -26 33 -16 48 12 19 32 -32 37 -107 10 -143 -22 -30 -28
-56 -11 -45 6 3 10 0 11 -7 0 -7 9 12 20 42 16 45 19 70 14 135 -4 57 -3 76 4
65 6 -8 11 -47 11 -86 0 -85 -26 -179 -70 -247 -16 -26 -30 -51 -30 -56 0 -10
28 -42 102 -121 41 -43 62 -58 74 -53 12 4 15 2 12 -8 -3 -8 11 -31 30 -51
l36 -38 -11 -100 c-6 -54 -18 -113 -26 -129 -8 -17 -18 -49 -22 -72 -5 -29
-10 -38 -16 -28 -7 11 -9 10 -9 -3 0 -10 -4 -18 -10 -18 -5 0 -10 -7 -10 -15
0 -9 -6 -12 -15 -9 -8 4 -15 1 -15 -5 0 -6 -7 -11 -15 -11 -18 0 -20 -16 -2
-24 6 -3 2 -3 -10 0 -27 6 -30 -4 -5 -22 16 -12 15 -13 -3 -8 -16 4 -21 0 -22
-17 -1 -12 -7 -27 -14 -33 -9 -8 -10 -8 -5 2 4 6 2 12 -4 12 -6 0 -9 3 -7 8 3
4 -5 7 -18 7 -14 0 -26 -7 -29 -17 -5 -21 5 -23 23 -5 11 10 13 9 7 -6 -3 -10
-6 -21 -6 -23 0 -3 -4 -2 -10 1 -5 3 -10 1 -10 -4 0 -17 8 -14 77 25 63 35
185 145 235 213 l26 34 7 -64 c4 -44 2 -87 -10 -139 -8 -41 -19 -88 -22 -104
l-6 -30 30 22 c32 23 45 21 36 -6 -3 -10 4 -3 15 15 36 55 53 57 101 13 59
-56 72 -50 16 6 -25 26 -43 49 -40 53 4 3 14 -5 24 -18 12 -15 23 -21 31 -16
8 5 11 4 6 -3 -3 -6 4 -18 16 -26 20 -14 24 -14 40 1 10 9 17 22 14 29 -3 8 1
11 9 7 9 -3 18 4 25 21 9 26 20 35 20 17 0 -12 -90 -132 -110 -148 -12 -9 -16
-8 -22 5 -6 16 -43 52 -53 52 -3 0 -5 -6 -5 -12 0 -17 -87 -190 -125 -248 -60
-94 -116 -229 -148 -359 -17 -72 -34 -131 -37 -131 -3 0 -18 26 -35 57 -16 31
-48 78 -70 104 -22 25 -53 63 -68 83 -19 25 -58 51 -120 82 -50 26 -105 57
-122 69 -16 13 -57 31 -90 41 -41 11 -54 19 -42 23 16 6 16 7 0 21 -10 9 -22
17 -28 19 -5 2 -16 12 -23 23 -7 10 -18 16 -23 13 -5 -3 -6 0 -4 7 3 8 -8 29
-25 48 -31 35 -37 50 -19 50 5 0 -10 28 -36 62 -25 35 -50 72 -57 83 -11 20
-11 20 11 1 28 -25 27 -13 -4 32 -17 25 -22 39 -14 47 12 12 147 16 155 4 3
-5 11 -9 17 -9 7 0 3 7 -7 15 -22 17 -15 29 16 30 12 0 23 6 25 13 3 8 -2 10
-14 6 -12 -3 -10 1 7 13 14 10 38 30 54 46 16 15 32 27 36 27 7 0 64 57 125
125 69 78 144 262 114 281 -5 3 -9 -3 -9 -13 0 -11 -13 -40 -30 -66 -16 -26
-30 -54 -30 -62 0 -18 -16 -20 -23 -2 -4 9 -6 9 -6 0 -1 -7 -5 -13 -11 -13 -5
0 -8 26 -7 59 1 43 -1 57 -10 54 -7 -3 -13 1 -13 8 0 8 -6 3 -14 -11 -11 -21
-11 -28 1 -41 7 -8 13 -21 13 -29 0 -17 -40 34 -40 52 -1 8 -6 6 -16 -7 -8
-11 -20 -21 -27 -21 -7 -1 -18 -2 -25 -3 -7 0 -12 -9 -11 -18 4 -40 -1 -45
-20 -22 -18 23 -20 23 -38 6 -11 -9 -25 -17 -31 -17 -17 0 -33 35 -22 46 16
16 -18 54 -48 54 -34 0 -142 32 -142 42 0 4 -6 8 -14 8 -8 0 -17 7 -20 16 -10
26 -7 54 6 54 18 0 -2 16 -30 25 -22 6 -23 5 -12 -14 10 -21 2 -55 -14 -51 -3
1 -31 -6 -60 -14 -30 -9 -63 -16 -74 -16 -21 0 -78 -76 -61 -82 6 -2 1 -25
-12 -56 -20 -47 -21 -57 -9 -92 7 -21 19 -41 26 -44 8 -3 14 -15 14 -26 0 -12
4 -19 10 -15 6 4 6 15 0 31 -13 33 -13 34 8 34 16 1 16 1 0 14 -26 19 -23 53
5 60 13 3 40 17 61 31 21 14 42 23 47 20 5 -3 34 -1 66 4 38 8 60 8 67 1 7 -7
5 -10 -5 -10 -8 0 -19 -8 -25 -18 -13 -20 -80 -56 -144 -77 l-45 -14 52 4 c31
3 76 17 110 34 39 20 61 27 69 20 7 -5 14 -6 16 -2 5 13 86 63 102 63 21 0 50
-51 49 -85 0 -16 4 -33 10 -37 17 -10 19 -68 3 -68 -8 0 -17 -13 -21 -30 -4
-20 -13 -30 -25 -30 -10 0 -25 -6 -32 -13 -7 -8 -19 -12 -27 -9 -8 3 -11 0 -7
-7 4 -6 2 -11 -3 -11 -6 0 -11 -9 -11 -20 0 -11 -7 -20 -15 -20 -8 0 -15 -5
-15 -12 0 -7 -7 -5 -18 5 -16 15 -19 15 -31 -4 -7 -12 -15 -18 -18 -15 -3 3
-12 -2 -21 -11 -14 -14 -17 -14 -23 3 -4 11 -8 13 -8 7 -1 -7 -6 -13 -12 -13
-5 0 -7 5 -4 10 4 6 1 17 -5 26 -10 11 -16 12 -26 3 -9 -8 -14 -8 -14 -1 0 6
-15 27 -32 46 -18 20 -41 47 -51 61 -11 15 -21 24 -25 21 -3 -3 -11 -1 -19 5
-25 21 -13 -3 16 -32 17 -16 51 -57 76 -90 51 -67 53 -89 19 -154 -10 -19 -11
-31 -5 -33 6 -2 11 -12 11 -23 0 -12 -5 -16 -15 -13 -9 4 -15 0 -15 -10 0 -9
6 -13 14 -10 10 4 12 -2 9 -21 -4 -20 -2 -24 10 -19 21 8 29 -20 41 -131 2
-16 9 -29 15 -27 7 1 5 -8 -5 -23 -9 -14 -12 -25 -8 -25 5 0 15 9 22 20 7 11
19 20 27 20 17 0 19 9 5 44 -6 16 -6 27 0 31 6 4 10 -3 10 -14 0 -26 10 -52
19 -47 4 3 6 -9 5 -25 -2 -24 3 -32 24 -41 15 -6 30 -11 35 -10 4 1 7 -4 7
-12 0 -7 7 -19 15 -26 9 -7 13 -15 10 -18 -3 -3 -14 3 -24 12 -11 10 -34 26
-53 35 -18 10 -35 28 -38 39 -7 31 -26 14 -39 -35 -7 -24 -16 -43 -21 -43 -6
0 -10 -7 -10 -15 0 -8 5 -15 11 -15 8 0 9 -19 5 -62 -9 -77 -16 -88 -16 -22 0
36 -10 69 -36 123 -20 41 -38 89 -41 108 -3 18 -10 36 -15 39 -4 3 -6 29 -2
57 4 39 3 48 -5 37 -10 -13 -12 -13 -22 0 -9 13 -10 12 -5 -3 4 -12 -2 -25
-16 -38 -32 -26 -44 -24 -14 4 17 15 22 28 17 40 -6 17 -11 14 -44 -22 -40
-44 -47 -64 -19 -54 9 4 4 -5 -13 -20 -16 -14 -24 -27 -17 -27 7 0 11 -4 8 -9
-3 -4 -18 -7 -33 -5 -22 2 -36 -5 -61 -33 -18 -20 -26 -33 -17 -29 25 9 15 -6
-32 -47 -28 -26 -43 -34 -47 -25 -3 7 -4 4 -3 -7 1 -11 -4 -20 -12 -20 -14 0
-21 -25 -22 -70 0 -15 -2 -16 -8 -6 -6 9 -11 10 -15 2 -4 -6 -4 -16 0 -23 4
-7 3 -8 -4 -4 -7 4 -12 15 -12 24 0 11 -3 13 -11 5 -8 -8 -8 -17 0 -31 13 -25
14 -33 3 -30 -13 4 -64 -60 -58 -71 4 -5 1 -13 -5 -17 -8 -4 -9 -3 -5 4 5 8
-1 12 -14 12 -16 0 -27 -14 -45 -52 -14 -29 -22 -61 -19 -71 3 -10 0 -24 -6
-32 -10 -12 -10 -15 1 -15 10 0 10 -3 1 -12 -9 -9 -16 -8 -29 5 -14 13 -15 21
-5 42 24 52 10 48 -17 -5 -30 -57 -33 -107 -11 -166 6 -15 8 -29 6 -32 -6 -6
-10 5 -26 68 l-12 44 -19 -24 c-18 -24 -21 -38 -24 -105 -1 -16 -7 -29 -12
-28 -6 1 -15 -24 -21 -55 -13 -68 -40 -263 -57 -409 l-7 -63 886 0 886 1 1 22
c0 22 1 22 10 2 9 -18 21 -21 95 -23 84 -2 85 -2 79 20 -5 21 -5 21 6 4 9 -15
13 -16 20 -5 7 11 9 10 9 -3 0 -17 41 -18 721 -18 716 0 721 0 716 20 -7 26 9
26 25 0 12 -19 24 -20 271 -20 l257 0 0 395 -1 394 -53 68 c-29 38 -70 101
-90 141 -22 43 -69 109 -114 160 -42 47 -71 82 -64 78 23 -14 12 17 -34 100
-34 59 -78 114 -158 197 -61 63 -107 113 -101 109 24 -14 -21 31 -49 49 l-31
21 30 -28 c16 -15 25 -25 20 -23 -48 22 -65 34 -61 46 6 15 -30 37 -45 27 -6
-4 -15 0 -20 7 -6 10 -9 10 -9 2 0 -7 9 -17 20 -23 15 -8 20 -8 20 2 0 9 3 9
11 1 6 -6 8 -16 4 -22 -8 -14 -62 16 -76 42 -5 9 -14 17 -20 17 -6 0 -29 13
-52 28 -42 28 -101 52 -127 52 -8 0 -33 9 -56 21 -24 11 -66 22 -93 24 -28 2
-66 11 -86 20 -19 10 -63 21 -97 26 -95 14 -105 16 -215 46 -56 15 -105 24
-108 21 -4 -3 -1 -17 6 -30 9 -17 3 -14 -19 11 -21 22 -38 31 -48 27 -9 -4
-23 -1 -30 5 -8 6 -14 10 -15 8 -8 -39 -2 -67 20 -89 14 -14 27 -32 29 -40 2
-8 8 -18 14 -21 6 -4 7 -12 3 -18 -10 -18 -35 6 -35 35 0 13 -8 25 -17 29 -21
7 -59 55 -43 55 5 0 10 5 10 11 0 6 -9 8 -21 4 -18 -6 -20 -4 -14 16 7 20 6
22 -7 12 -12 -10 -22 -5 -58 33 -64 67 -97 89 -178 117 -40 13 -74 26 -76 28
-2 2 -7 54 -10 114 -4 61 -11 124 -16 140 -12 36 -19 233 -10 259 3 10 3 48
-1 85 -4 36 -10 98 -14 136 -4 39 -12 76 -18 84 -9 11 -9 15 2 19 9 3 5 12
-15 30 -17 15 -24 26 -17 29 16 6 -2 55 -28 79 -10 9 -19 26 -19 36 0 11 -11
23 -25 28 -14 5 -25 16 -25 25 0 20 -38 57 -50 50 -6 -4 -10 -2 -10 4 0 15
-112 92 -127 87 -7 -3 -10 1 -6 10 4 12 0 15 -19 13 -18 -3 -33 6 -58 34 l-33
39 -14 -24 -14 -23 4 28 c5 33 -10 36 -18 4 -7 -27 -36 -32 -42 -7 -4 14 -13
17 -39 13 -19 -3 -34 0 -34 5 0 15 -65 34 -119 36 -25 1 -52 5 -60 10 -11 7
-13 5 -8 -7 8 -21 -11 -22 -37 -2 -21 16 -91 21 -82 6 3 -4 -7 -6 -22 -3 -26
4 -27 4 -7 -13 18 -15 18 -16 2 -11 -10 3 -21 6 -23 6 -2 0 -4 7 -4 15 0 18
-5 18 -31 5 -14 -8 -19 -8 -17 1 2 6 -3 14 -11 17 -10 3 -12 0 -8 -12z m171
-22 c5 -12 2 -15 -10 -10 -8 3 -18 6 -20 6 -3 0 -2 5 1 10 9 15 22 12 29 -6z
m-304 -64 c0 -5 -5 -10 -11 -10 -5 0 -7 5 -4 10 3 6 8 10 11 10 2 0 4 -4 4
-10z m-10 -36 c0 -8 -7 -14 -15 -14 -9 0 -12 6 -8 17 5 12 3 14 -7 8 -8 -5
-11 -4 -6 3 9 15 36 4 36 -14z m170 -9 c0 -8 -7 -15 -15 -15 -26 0 -18 20 13
29 1 1 2 -6 2 -14z m-50 -39 c0 -5 -7 -1 -15 10 -8 10 -14 24 -14 29 0 6 6 1
14 -9 8 -11 15 -24 15 -30z m-294 -163 c-11 -11 -19 6 -11 24 8 17 8 17 12 0
3 -10 2 -21 -1 -24z m-46 -39 c0 -8 -5 -12 -10 -9 -6 4 -8 11 -5 16 9 14 15
11 15 -7z m27 -211 c-4 -17 -4 -17 -12 0 -4 9 -4 25 0 35 8 16 8 16 12 0 3
-10 3 -26 0 -35z m43 10 c0 -7 -4 -13 -10 -13 -5 0 -10 12 -10 28 0 21 2 24
10 12 5 -8 10 -21 10 -27z m1307 -175 c-3 -8 -6 -5 -6 6 -1 11 2 17 5 13 3 -3
4 -12 1 -19z m-147 -118 c-10 -19 -40 -28 -40 -12 0 13 23 32 37 32 11 0 11
-5 3 -20z m-360 -671 c0 -11 -11 -11 -29 0 -7 5 -10 14 -6 20 5 9 10 9 21 0 8
-6 14 -15 14 -20z m98 -4 c-3 -3 -9 2 -12 12 -6 14 -5 15 5 6 7 -7 10 -15 7
-18z m1005 -135 c4 -15 0 -20 -16 -20 -17 0 -19 2 -8 9 7 5 10 14 7 20 -4 6
-3 11 2 11 5 0 12 -9 15 -20z m442 -8 c-3 -3 -11 0 -18 7 -9 10 -8 11 6 5 10
-3 15 -9 12 -12z m51 -13 c5 -8 8 -8 13 0 5 8 15 5 31 -9 13 -11 19 -20 14
-20 -6 0 -16 6 -22 12 -10 10 -15 10 -22 -2 -8 -12 -10 -12 -10 -1 0 9 -8 12
-24 9 -17 -4 -23 -1 -19 9 6 16 29 17 39 2z m132 -36 c17 -13 32 -29 32 -35 0
-7 -13 0 -28 15 -15 15 -35 27 -44 27 -9 0 -18 7 -21 14 -8 20 18 11 61 -21z
m-593 -3 c3 -5 1 -10 -4 -10 -6 0 -11 5 -11 10 0 6 2 10 4 10 3 0 8 -4 11 -10z
m661 -28 c17 -27 17 -27 -15 2 -35 33 -37 38 -17 30 8 -3 22 -18 32 -32z
m-736 -2 c0 -5 -2 -10 -4 -10 -3 0 -8 5 -11 10 -3 6 -1 10 4 10 6 0 11 -4 11
-10z m801 -33 c12 -22 12 -22 -10 -3 -11 11 -21 23 -21 28 0 14 19 -1 31 -25z
m-754 -23 c18 -14 33 -30 33 -37 0 -8 -3 -8 -8 -2 -4 6 -22 23 -40 38 -42 34
-30 36 15 1z m853 -47 c0 -8 -4 -7 -10 3 -8 12 -10 12 -11 -5 0 -14 -2 -16 -6
-5 -3 8 -13 23 -22 34 -16 18 -15 18 17 2 17 -9 32 -22 32 -29z m-965 7 c9
-15 12 -23 6 -20 -11 7 -35 46 -28 46 3 0 12 -12 22 -26z m98 -30 c34 -29 21
-33 -16 -4 -14 11 -32 20 -40 20 -9 0 -19 5 -23 11 -12 20 47 0 79 -27z m-118
15 c11 -17 -1 -21 -15 -4 -8 9 -8 15 -2 15 6 0 14 -5 17 -11z m-40 -85 c12
-19 14 -29 6 -37 -14 -14 -51 19 -51 45 0 26 25 22 45 -8z m-1273 -39 c-2 -14
-6 -25 -8 -25 -2 0 -4 11 -4 25 0 14 4 25 9 25 4 0 6 -11 3 -25z m2459 -32
c13 -16 12 -17 -3 -4 -17 13 -22 21 -14 21 2 0 10 -8 17 -17z m-2458 -23 c3
-11 1 -20 -4 -20 -5 0 -9 9 -9 20 0 11 2 20 4 20 2 0 6 -9 9 -20z m2532 -47
c25 -27 50 -63 42 -63 -1 0 -20 20 -40 45 -42 50 -43 61 -2 18z m-1275 -93 c0
-10 -3 -21 -7 -23 -5 -3 -8 8 -8 23 0 15 3 26 8 23 4 -2 7 -13 7 -23z m460 -2
c0 -16 -3 -19 -11 -11 -6 6 -8 16 -5 22 11 17 16 13 16 -11z m921 -17 c18 -17
31 -32 28 -35 -3 -3 -21 10 -39 29 -41 43 -35 46 11 6z m-647 -23 c8 -32 7
-40 -3 -34 -11 7 -21 56 -11 56 4 0 10 -10 14 -22z m704 -43 c-3 -3 -9 2 -12
12 -6 14 -5 15 5 6 7 -7 10 -15 7 -18z m-3018 7 c0 -14 -39 -46 -47 -39 -3 4
-1 7 5 7 6 0 14 9 17 20 6 20 25 28 25 12z m605 -52 c3 -5 1 -10 -4 -10 -6 0
-11 5 -11 10 0 6 2 10 4 10 3 0 8 -4 11 -10z m-121 -31 c-8 -13 -21 -11 -27 5
-4 10 0 12 14 9 10 -3 16 -9 13 -14z m29 -19 c-3 -11 -10 -20 -15 -20 -6 0 -7
7 -4 16 3 9 6 20 6 25 0 6 4 8 9 5 5 -3 7 -15 4 -26z m1527 21 c0 -6 -4 -13
-10 -16 -5 -3 -10 1 -10 9 0 9 5 16 10 16 6 0 10 -4 10 -9z m-2127 -54 c-3
-20 -10 -37 -15 -37 -5 0 -7 -4 -4 -9 7 -11 -22 -36 -31 -27 -3 3 -1 6 6 6 7
0 10 4 6 9 -5 9 35 104 42 98 1 -2 0 -20 -4 -40z m727 23 c0 -5 -6 -7 -14 -4
-8 3 -24 1 -35 -6 -12 -6 -21 -7 -21 -1 0 5 6 12 13 14 21 9 57 7 57 -3z m760
0 c0 -6 -13 -29 -30 -52 -16 -22 -30 -47 -30 -55 0 -7 -7 -13 -16 -13 -24 0
-8 57 29 97 30 33 47 41 47 23z m100 6 c0 -3 -4 -8 -10 -11 -5 -3 -10 -1 -10
4 0 6 5 11 10 11 6 0 10 -2 10 -4z m-1380 -101 c0 -5 -5 -3 -10 5 -5 8 -10 20
-10 25 0 6 5 3 10 -5 5 -8 10 -19 10 -25z m237 -27 c-3 -8 -6 -5 -6 6 -1 11 2
17 5 13 3 -3 4 -12 1 -19z m614 -29 c22 -22 22 -54 0 -54 -19 0 -55 50 -47 64
10 16 23 14 47 -10z m-806 -17 c-3 -3 -11 0 -18 7 -9 10 -8 11 6 5 10 -3 15
-9 12 -12z m-17 -27 c-3 -3 -9 2 -12 12 -6 14 -5 15 5 6 7 -7 10 -15 7 -18z
m302 -1 c0 -10 -6 -14 -15 -10 -9 3 -15 0 -15 -9 0 -8 -4 -15 -10 -15 -5 0
-10 7 -10 15 0 12 22 28 48 34 1 1 2 -6 2 -15z m-570 -10 c0 -8 -5 -12 -10 -9
-6 4 -8 11 -5 16 9 14 15 11 15 -7z m245 -6 c-6 -17 -4 -20 9 -15 10 4 16 1
16 -8 0 -19 -15 -19 -34 1 -13 12 -13 18 -3 29 17 20 19 18 12 -7z m73 -20
c-14 -59 -16 -98 -5 -98 4 0 5 -5 1 -11 -3 -6 -1 -15 5 -19 7 -4 13 -35 14
-73 2 -37 8 -72 14 -78 14 -14 5 -49 -13 -49 -8 0 -14 -7 -14 -15 0 -8 7 -15
15 -15 8 0 15 -4 15 -10 0 -5 -9 -10 -20 -10 -13 0 -20 7 -20 20 0 11 -4 20
-10 20 -14 0 -12 -23 4 -45 7 -10 20 -16 29 -12 20 7 32 -36 17 -63 -9 -16 -7
-24 6 -37 10 -10 12 -19 6 -21 -6 -2 -8 -11 -5 -20 4 -13 2 -12 -10 3 -8 11
-13 23 -11 27 3 5 0 8 -6 8 -12 0 -9 -23 7 -67 6 -17 5 -17 -15 1 -13 11 -22
31 -22 47 0 15 -5 31 -11 35 -9 5 -10 -1 -5 -22 7 -28 7 -28 -11 -11 -17 18
-17 19 4 36 l22 18 -24 23 c-14 13 -25 18 -25 12 0 -7 -4 -12 -10 -12 -5 0 -7
6 -5 13 3 7 1 34 -4 60 -5 26 -5 47 0 47 5 0 9 -5 9 -11 0 -5 4 -8 10 -4 5 3
6 13 3 22 -4 9 1 21 10 28 14 10 15 17 4 44 -9 25 -9 36 2 54 13 20 13 21 -2
8 -15 -11 -17 -11 -17 1 0 8 5 19 12 26 9 9 7 13 -5 18 -25 9 -23 80 2 93 10
6 20 9 22 6 2 -2 4 11 4 28 0 28 12 44 36 46 4 1 2 -18 -3 -41z m3026 16 c3
-8 2 -12 -4 -9 -6 3 -10 10 -10 16 0 14 7 11 14 -7z m-2606 -19 c-3 -3 -9 2
-12 12 -6 14 -5 15 5 6 7 -7 10 -15 7 -18z m-123 -4 c3 -5 0 -13 -5 -16 -8 -5
-6 -11 4 -18 18 -15 25 -49 10 -54 -10 -3 -44 62 -44 85 0 14 26 16 35 3z
m2755 -16 c11 -13 10 -14 -4 -9 -9 3 -16 10 -16 15 0 13 6 11 20 -6z m-3147
-11 c-5 -13 -43 -7 -43 7 0 5 11 8 24 7 14 -1 22 -7 19 -14z m-170 -24 c3 -11
1 -20 -4 -20 -5 0 -9 9 -9 20 0 11 2 20 4 20 2 0 6 -9 9 -20z m653 -9 c0 -11
-4 -17 -8 -15 -4 3 -8 12 -8 20 0 8 4 14 8 14 4 0 8 -9 8 -19z m-872 -17 c5
-14 4 -15 -9 -4 -17 14 -19 20 -6 20 5 0 12 -7 15 -16z m396 -26 c0 -5 -4 -7
-8 -4 -4 2 -8 -4 -8 -14 0 -10 6 -16 13 -13 7 3 13 1 13 -5 0 -5 -6 -12 -14
-15 -17 -7 -26 13 -26 55 0 26 2 29 15 18 8 -7 15 -17 15 -22z m596 15 c0 -10
-7 -24 -14 -32 -11 -11 -11 -15 0 -22 10 -6 10 -11 1 -20 -9 -9 -14 -5 -19 17
-5 18 -3 29 4 32 7 2 12 12 12 23 0 10 4 19 9 19 5 0 8 -8 7 -17z m-119 -35
c-3 -8 -6 -5 -6 6 -1 11 2 17 5 13 3 -3 4 -12 1 -19z m213 -39 c0 -4 -7 -6
-15 -3 -8 4 -15 10 -15 15 0 4 7 6 15 3 8 -4 15 -10 15 -15z m-535 -20 c-4 -5
-2 -9 4 -9 6 0 8 -7 4 -15 -3 -9 -2 -15 3 -14 24 4 26 -3 6 -17 -12 -8 -22
-22 -22 -30 0 -21 -16 -9 -23 16 -3 13 -1 18 6 14 9 -5 9 -4 0 6 -13 14 3 74
18 64 5 -3 7 -10 4 -15z m135 11 c0 -5 -2 -10 -4 -10 -3 0 -8 5 -11 10 -3 6
-1 10 4 10 6 0 11 -4 11 -10z m-284 -14 c20 -21 17 -28 -6 -14 -11 7 -20 16
-20 20 0 12 10 9 26 -6z m254 10 c0 -2 -9 -6 -20 -9 -11 -3 -18 -1 -14 4 5 9
34 13 34 5z m400 -12 c0 -8 -5 -12 -10 -9 -6 4 -8 11 -5 16 9 14 15 11 15 -7z
m-30 -58 c-1 -20 -2 -19 -15 4 l-15 25 6 -32 c7 -38 -2 -44 -15 -10 -5 13 -5
27 1 34 5 7 6 18 2 25 -4 7 2 4 14 -6 12 -11 22 -29 22 -40z m-407 12 c-9 -15
-23 -8 -23 12 0 17 2 19 14 8 8 -7 12 -16 9 -20z m113 -3 c0 -19 -4 -35 -8
-35 -4 0 -8 7 -8 15 0 9 -7 18 -15 21 -8 4 -15 11 -15 16 0 6 6 5 15 -2 12
-10 15 -10 15 4 0 9 4 16 8 16 4 0 8 -16 8 -35z m-316 0 c7 -9 8 -15 2 -15 -5
0 -12 7 -16 15 -3 8 -4 15 -2 15 2 0 9 -7 16 -15z m513 -42 c-7 -18 -33 -24
-33 -7 0 8 5 12 10 9 6 -4 10 8 11 27 1 30 2 31 8 8 4 -14 6 -30 4 -37z m-290
14 c4 -12 4 -43 2 -70 -2 -26 0 -47 5 -47 5 0 7 -7 3 -16 -4 -11 1 -22 12 -30
15 -11 16 -17 7 -26 -9 -9 -12 -8 -12 6 0 16 -4 15 -25 -8 -14 -15 -24 -30
-24 -34 3 -19 -2 -22 -16 -8 -9 8 -15 33 -15 58 0 24 -5 49 -12 56 -9 9 -9 12
0 12 18 0 33 -37 26 -65 -5 -19 -2 -25 9 -25 23 0 31 19 15 37 -7 9 -8 14 -2
10 7 -4 10 2 6 18 -2 14 -8 22 -13 20 -4 -3 -6 10 -4 29 4 31 2 36 -20 42 -14
3 -22 10 -19 16 3 5 12 7 20 4 8 -3 11 0 7 10 -3 8 1 14 11 14 9 0 16 5 16 10
0 19 18 10 23 -13z m32 13 c3 -5 1 -10 -4 -10 -6 0 -11 5 -11 10 0 6 2 10 4
10 3 0 8 -4 11 -10z m-434 -50 c4 -3 5 -17 2 -32 -8 -44 -28 -21 -29 35 -1 46
0 49 9 27 7 -14 15 -27 18 -30z m12 35 c-3 -9 -8 -14 -10 -11 -3 3 -2 9 2 15
9 16 15 13 8 -4z m554 -7 c-3 -8 -6 -5 -6 6 -1 11 2 17 5 13 3 -3 4 -12 1 -19z
m173 -5 c0 -21 -3 -24 -9 -14 -5 8 -7 20 -4 28 8 21 13 15 13 -14z m-576 -14
c-3 -5 -10 -7 -15 -3 -5 3 -7 10 -3 15 3 5 10 7 15 3 5 -3 7 -10 3 -15z m286
-20 c0 -6 -4 -7 -10 -4 -5 3 -10 11 -10 16 0 6 5 7 10 4 6 -3 10 -11 10 -16z
m-650 -25 c0 -8 -4 -12 -10 -9 -5 3 -10 10 -10 16 0 5 5 9 10 9 6 0 10 -7 10
-16z m830 12 c0 -3 -4 -8 -10 -11 -5 -3 -10 -1 -10 4 0 6 5 11 10 11 6 0 10
-2 10 -4z m64 -18 c-3 -4 -9 -8 -15 -8 -5 0 -9 4 -9 8 0 5 7 9 15 9 8 0 12 -4
9 -9z m973 -10 c-3 -8 -6 -5 -6 6 -1 11 2 17 5 13 3 -3 4 -12 1 -19z m-1050
-4 c-3 -3 -12 -4 -19 -1 -8 3 -5 6 6 6 11 1 17 -2 13 -5z m-804 -10 c8 -8 -3
-34 -14 -34 -5 0 -9 9 -9 20 0 19 11 26 23 14z m217 -10 c0 -8 -5 -12 -10 -9
-6 4 -8 11 -5 16 9 14 15 11 15 -7z m289 -73 c0 -30 -2 -51 -5 -48 -4 4 -8 37
-9 74 -1 38 1 59 5 48 4 -11 8 -44 9 -74z m239 64 c-3 -3 -9 2 -12 12 -6 14
-5 15 5 6 7 -7 10 -15 7 -18z m-88 -20 c0 -5 -5 -3 -10 5 -5 8 -10 20 -10 25
0 6 5 3 10 -5 5 -8 10 -19 10 -25z m-440 -5 c13 -11 29 -20 35 -20 14 0 15
-31 2 -41 -4 -3 -3 -16 2 -30 5 -13 10 -19 10 -14 1 14 41 17 41 4 0 -6 -4 -7
-10 -4 -5 3 -10 2 -10 -4 0 -5 5 -13 10 -16 6 -4 8 -10 5 -15 -3 -5 -1 -20 5
-34 5 -14 7 -26 5 -26 -5 0 -27 48 -29 62 -2 13 -16 21 -17 10 -1 -7 -2 -17
-3 -24 0 -6 -6 -13 -12 -15 -14 -5 -25 46 -17 76 6 24 -15 29 -35 9 -9 -9 -12
-9 -12 0 0 6 8 16 18 21 9 6 13 11 7 11 -5 0 -4 4 4 9 12 8 12 12 -2 25 -8 9
-21 16 -27 16 -6 0 -8 5 -5 10 8 13 8 13 35 -10z m-193 -22 c1 -10 -3 -21 -9
-24 -6 -4 -7 -9 0 -13 13 -8 25 -51 15 -51 -5 0 -17 15 -25 34 -12 25 -14 36
-5 45 8 8 8 11 -1 11 -7 0 -12 4 -12 9 0 18 36 7 37 -11z m1233 12 c0 -5 -5
-10 -11 -10 -5 0 -7 5 -4 10 3 6 8 10 11 10 2 0 4 -4 4 -10z m220 -72 c0 -6
-7 -19 -16 -29 -15 -17 -17 -16 -40 4 -27 24 -29 33 -12 69 l13 26 27 -29 c16
-16 28 -34 28 -41z m57 20 c-3 -8 -6 -5 -6 6 -1 11 2 17 5 13 3 -3 4 -12 1
-19z m-1185 -10 c-7 -7 -12 -8 -12 -2 0 14 12 26 19 19 2 -3 -1 -11 -7 -17z
m263 3 c3 -6 -3 -9 -14 -8 -11 0 -17 5 -15 9 7 11 22 10 29 -1z m754 -55 c-1
-25 -3 -26 -6 -8 -3 13 -10 25 -18 28 -7 3 -11 14 -7 26 5 20 6 20 19 3 7 -11
12 -33 12 -49z m-1295 28 c3 -9 6 -25 6 -37 -1 -20 -2 -20 -11 -4 -5 9 -7 22
-4 27 3 6 1 10 -4 10 -6 0 -11 5 -11 10 0 16 17 12 24 -6z m576 2 c0 -2 -7 -7
-16 -10 -8 -3 -12 -2 -9 4 6 10 25 14 25 6z m-732 -41 c-3 -3 -9 2 -12 12 -6
14 -5 15 5 6 7 -7 10 -15 7 -18z m459 3 c2 -17 0 -19 -7 -8 -5 8 -6 18 -4 22
8 12 10 10 11 -14z m-331 0 c5 -8 2 -9 -9 -5 -10 4 -17 1 -17 -5 0 -6 -3 -9
-6 -5 -7 7 4 27 16 27 5 0 12 -5 16 -12z m299 2 c3 -5 1 -10 -4 -10 -6 0 -11
5 -11 10 0 6 2 10 4 10 3 0 8 -4 11 -10z m835 -41 c0 -6 -4 -7 -10 -4 -5 3
-10 11 -10 16 0 6 5 7 10 4 6 -3 10 -11 10 -16z m381 -68 c6 9 9 10 9 2 0 -6
-4 -15 -10 -18 -14 -9 -12 -43 2 -47 7 -3 12 -19 10 -39 -1 -22 1 -29 7 -20 6
9 10 5 13 -16 2 -17 2 -35 0 -41 -7 -21 -22 -13 -22 11 0 15 -3 18 -8 9 -6 -8
-9 -3 -9 15 -1 15 -4 44 -7 63 -3 19 -8 67 -11 105 l-4 70 10 -54 c8 -38 14
-50 20 -40z m-1338 49 c-3 -12 0 -20 6 -20 7 0 9 -5 5 -11 -4 -8 -9 -7 -15 2
-12 19 -11 62 0 55 5 -3 7 -15 4 -26z m1384 -2 c-3 -7 -5 -2 -5 12 0 14 2 19
5 13 2 -7 2 -19 0 -25z m-1580 -10 c-3 -8 -6 -5 -6 6 -1 11 2 17 5 13 3 -3 4
-12 1 -19z m-73 -4 c10 -25 -1 -29 -14 -5 -6 12 -7 21 -1 21 5 0 12 -7 15 -16z
m142 -9 c9 -37 -2 -41 -14 -6 -7 18 -7 31 -2 31 5 0 12 -11 16 -25z m173 -2
c0 -25 -1 -26 -9 -8 -12 27 -12 35 0 35 6 0 10 -12 9 -27z m1748 5 c-3 -8 -6
-5 -6 6 -1 11 2 17 5 13 3 -3 4 -12 1 -19z m-1836 -31 c-10 -9 -11 -8 -5 6 3
10 9 15 12 12 3 -3 0 -11 -7 -18z m384 -62 c4 -27 3 -28 -7 -10 -7 11 -13 36
-15 55 -2 33 -2 33 8 10 6 -14 12 -38 14 -55z m-345 40 c-7 -8 -17 -15 -23
-15 -6 0 -2 8 9 19 22 21 33 19 14 -4z m921 11 c-7 -8 -8 -15 -2 -18 15 -5 18
-60 3 -65 -7 -3 -12 -1 -11 4 1 4 0 10 -1 13 -4 11 -7 66 -3 73 2 4 9 7 15 7
7 0 7 -5 -1 -14z m236 -18 c-3 -8 -6 -5 -6 6 -1 11 2 17 5 13 3 -3 4 -12 1
-19z m16 -85 c4 -31 2 -53 -3 -53 -10 0 -12 10 -14 82 -2 54 10 33 17 -29z
m424 5 c-3 -8 -6 -5 -6 6 -1 11 2 17 5 13 3 -3 4 -12 1 -19z m-657 -49 c0 -6
-4 -7 -10 -4 -5 3 -10 11 -10 16 0 6 5 7 10 4 6 -3 10 -11 10 -16z m-552 -54
c-4 -16 0 -25 11 -28 14 -4 14 -5 -1 -6 -22 -1 -28 10 -21 37 7 30 16 28 11
-3z m469 3 c-3 -8 -6 -5 -6 6 -1 11 2 17 5 13 3 -3 4 -12 1 -19z m533 7 c0 -9
-6 -12 -15 -9 -8 4 -12 10 -9 15 8 14 24 10 24 -6z m-43 -27 c-3 -7 -5 -2 -5
12 0 14 2 19 5 13 2 -7 2 -19 0 -25z"/>
<path d="M760 829 c0 -5 5 -7 10 -4 6 3 10 8 10 11 0 2 -4 4 -10 4 -5 0 -10
-5 -10 -11z"/>
<path d="M770 806 c0 -2 7 -7 16 -10 8 -3 12 -2 9 4 -6 10 -25 14 -25 6z"/>
<path d="M797 717 c-4 -10 -2 -26 4 -36 9 -13 7 -25 -6 -50 -9 -18 -12 -30 -7
-27 6 3 13 0 16 -6 3 -7 3 -3 0 10 -6 23 11 32 19 10 2 -7 7 -10 11 -7 4 4 0
24 -8 45 -8 22 -16 48 -18 59 -3 18 -4 19 -11 2z"/>
<path d="M770 580 c0 -5 5 -10 10 -10 6 0 10 5 10 10 0 6 -4 10 -10 10 -5 0
-10 -4 -10 -10z"/>
<path d="M750 548 c0 -19 2 -20 10 -8 13 19 13 30 0 30 -5 0 -10 -10 -10 -22z"/>
<path d="M778 555 c-8 -13 9 -55 22 -55 5 0 10 7 10 15 0 8 -4 15 -9 15 -5 0
-11 8 -13 18 -2 9 -6 13 -10 7z"/>
<path d="M850 491 c0 -8 -6 -11 -16 -7 -12 5 -15 2 -10 -10 3 -8 6 -23 7 -32
0 -9 7 -2 15 17 8 18 13 36 10 39 -4 3 -6 0 -6 -7z"/>
<path d="M535 3460 c-3 -5 1 -10 9 -10 9 0 16 5 16 10 0 6 -4 10 -9 10 -6 0
-13 -4 -16 -10z"/>
<path d="M1490 3420 c0 -5 5 -10 11 -10 5 0 7 5 4 10 -3 6 -8 10 -11 10 -2 0
-4 -4 -4 -10z"/>
<path d="M980 2699 c-70 -13 -74 -14 -86 -21 -6 -4 -22 -9 -37 -12 -30 -5 -71
-32 -104 -68 -24 -26 -35 -74 -15 -71 12 3 16 -14 13 -49 -3 -24 18 -60 30
-52 6 3 8 13 5 21 -4 10 -1 13 12 9 12 -4 22 5 36 34 12 25 22 36 27 29 9 -15
29 -3 29 18 0 15 2 15 18 0 16 -15 20 -15 40 -2 12 9 19 22 16 30 -8 20 15 19
55 -1 l32 -16 -25 -21 c-29 -25 -22 -52 10 -40 22 8 124 95 124 106 0 4 -9 7
-19 7 -34 0 -31 16 4 30 43 17 44 24 3 39 -18 7 -46 19 -61 27 -31 15 -41 16
-107 3z m-13 -85 c-3 -3 -12 -4 -19 -1 -8 3 -5 6 6 6 11 1 17 -2 13 -5z"/>
<path d="M455 2552 c-15 -16 -2 -44 25 -53 16 -6 28 -14 25 -18 -2 -4 3 -18
12 -30 12 -17 18 -20 24 -10 6 10 11 10 24 -1 18 -15 31 -6 37 25 2 15 11 20
31 19 74 -3 -22 52 -113 64 -33 5 -62 6 -65 4z"/>
<path d="M1590 2436 c0 -7 -3 -34 -6 -60 -6 -43 -5 -46 15 -46 18 0 20 3 11
19 -14 26 -13 52 2 49 6 -2 14 5 16 16 2 11 0 16 -7 12 -6 -4 -11 0 -11 8 0 9
-4 16 -10 16 -5 0 -10 -6 -10 -14z"/>
<path d="M970 1861 c0 -5 -9 -7 -21 -4 -25 7 -39 -11 -39 -51 0 -21 4 -27 15
-22 8 3 15 1 15 -4 0 -5 7 -7 15 -3 10 3 15 1 13 -7 -2 -7 3 -15 11 -17 8 -4
12 0 9 8 -5 15 14 39 30 39 5 0 15 6 21 14 10 12 8 19 -8 35 -21 21 -61 29
-61 12z"/>
<path d="M1228 1623 c7 -3 16 -2 19 1 4 3 -2 6 -13 5 -11 0 -14 -3 -6 -6z"/>
<path d="M1600 1582 c0 -12 19 -26 26 -19 2 2 -2 10 -11 17 -9 8 -15 8 -15 2z"/>
<path d="M1582 1560 c0 -14 2 -19 5 -12 2 6 2 18 0 25 -3 6 -5 1 -5 -13z"/>
<path d="M2012 1419 c-5 -13 -12 -37 -16 -52 -11 -45 12 -22 24 24 12 45 6 66
-8 28z"/>
<path d="M836 1417 c3 -10 9 -15 12 -12 3 3 0 11 -7 18 -10 9 -11 8 -5 -6z"/>
<path d="M850 1360 c0 -5 5 -10 11 -10 5 0 7 5 4 10 -3 6 -8 10 -11 10 -2 0
-4 -4 -4 -10z"/>
<path d="M810 1344 c0 -8 5 -12 10 -9 6 3 10 10 10 16 0 5 -4 9 -10 9 -5 0
-10 -7 -10 -16z"/>
<path d="M850 1317 c0 -14 7 -37 14 -53 8 -15 13 -31 10 -36 -3 -4 0 -8 5 -8
6 0 11 14 11 31 0 16 -4 28 -9 25 -5 -3 -8 8 -7 25 0 18 -5 34 -11 36 -8 3
-13 -5 -13 -20z"/>
<path d="M635 1309 c-11 -17 1 -21 15 -4 8 9 8 15 2 15 -6 0 -14 -5 -17 -11z"/>
<path d="M317 943 c-4 -3 -7 -11 -7 -17 0 -6 5 -5 12 2 6 6 9 14 7 17 -3 3 -9
2 -12 -2z"/>
</g>
</svg>
