<?xml version="1.0" standalone="no"?>
<!DOCTYPE svg PUBLIC "-//W3C//DTD SVG 20010904//EN"
 "http://www.w3.org/TR/2001/REC-SVG-20010904/DTD/svg10.dtd">
<svg version="1.0" xmlns="http://www.w3.org/2000/svg"
 width="300.000000pt" height="300.000000pt" viewBox="0 0 300.000000 300.000000"
 preserveAspectRatio="xMidYMid meet">
<metadata>
Created by potrace 1.14, written by Peter Selinger 2001-2017
</metadata>
<g transform="translate(0.000000,300.000000) scale(0.100000,-0.100000)"
fill="#000000" stroke="none">
<path d="M813 2952 c1 -42 -4 -58 -24 -82 -35 -42 -46 -37 -14 8 l28 37 -31
-29 c-18 -17 -32 -33 -32 -37 0 -16 -202 -211 -242 -233 -47 -26 -106 -96
-140 -166 -12 -25 -28 -49 -36 -53 -9 -6 -12 -18 -8 -33 5 -17 2 -24 -9 -24
-8 0 -15 -6 -15 -14 0 -9 -12 -16 -32 -18 -31 -3 -33 -7 -54 -73 -26 -84 -45
-122 -72 -141 -14 -9 -22 -31 -27 -66 -4 -29 -13 -62 -21 -73 -21 -32 -69
-240 -59 -256 3 -4 9 -48 14 -97 6 -52 19 -110 31 -136 11 -25 25 -68 30 -96
10 -51 42 -124 60 -135 5 -3 15 -15 20 -25 8 -16 7 -18 -4 -14 -9 3 -21 -5
-32 -21 -16 -25 -16 -26 2 -40 17 -13 18 -14 2 -15 -12 0 -18 -8 -18 -25 0
-18 -4 -23 -15 -19 -8 4 -15 16 -15 28 0 22 -23 47 -53 59 -10 4 -21 17 -26
29 -7 18 -4 27 12 40 12 10 28 18 35 18 7 0 10 5 7 10 -4 6 -10 8 -14 5 -14
-8 -39 29 -39 58 0 16 -5 34 -11 40 -8 8 -11 -43 -10 -199 1 -192 6 -222 23
-135 3 16 36 31 49 24 4 -3 14 1 22 7 12 10 15 9 15 -7 0 -52 75 -97 87 -53 6
23 8 24 34 10 24 -14 26 5 2 19 -10 5 -14 13 -10 17 5 5 12 2 17 -5 4 -8 17
-15 29 -16 11 -1 43 -25 72 -54 41 -42 53 -61 53 -86 1 -33 16 -39 16 -7 1 10
9 2 19 -18 11 -19 18 -38 16 -41 -2 -3 9 -13 26 -23 16 -9 29 -24 29 -32 0 -8
5 -14 11 -14 8 0 10 -26 7 -86 -4 -84 -4 -86 21 -99 14 -7 44 -18 66 -24 36
-9 81 -51 55 -51 -5 0 -10 5 -10 11 0 6 -7 9 -14 6 -11 -4 -13 -1 -9 10 5 13
3 15 -13 8 -10 -5 -35 -8 -54 -7 -47 1 -62 -12 -48 -46 6 -15 10 -58 9 -95 -2
-87 9 -108 52 -103 18 3 32 5 32 6 0 1 9 3 20 5 19 3 19 3 1 -8 -10 -7 -34
-24 -53 -39 -19 -15 -46 -29 -61 -33 -54 -12 -106 -58 -123 -107 -8 -26 -23
-56 -32 -66 -9 -10 -17 -22 -17 -25 0 -4 507 -7 1126 -7 897 0 1124 3 1118 13
-6 10 -4 10 7 0 9 -9 58 -13 169 -13 94 0 150 4 141 9 -12 8 -12 23 -1 98 l12
89 -30 59 c-16 33 -40 69 -52 80 -13 11 -30 32 -40 47 -28 47 -144 141 -231
189 -60 33 -120 56 -209 79 -168 44 -170 45 -170 123 0 106 18 237 36 264 9
14 25 28 35 30 10 3 16 9 13 14 -8 13 15 50 50 84 67 64 80 145 39 246 -8 22
-13 42 -10 45 2 3 -4 37 -14 76 -10 40 -16 75 -13 79 2 4 -5 14 -17 23 -12 8
-18 19 -14 26 4 6 0 19 -8 28 -8 9 -22 31 -30 47 -9 17 -27 42 -41 57 -14 15
-26 32 -26 37 0 5 -9 12 -20 16 -28 9 -100 94 -100 119 0 46 -12 63 -50 76
-55 18 -118 4 -139 -31 -33 -56 -125 -154 -143 -153 -10 0 -18 -5 -18 -11 0
-15 43 -35 78 -36 29 0 76 -17 53 -18 -10 -1 -12 -10 -8 -36 6 -35 -8 -49 -19
-20 -4 8 -10 12 -15 9 -5 -3 -7 -9 -4 -14 3 -5 -10 -25 -30 -44 -19 -19 -35
-33 -35 -29 0 3 -7 0 -15 -7 -9 -7 -15 -30 -15 -54 -1 -37 -2 -39 -14 -23 -15
19 -33 6 -20 -15 5 -7 3 -8 -5 -4 -8 5 -11 3 -10 -5 6 -37 -15 -115 -38 -136
-13 -13 -28 -23 -32 -23 -4 0 -7 -13 -6 -30 1 -20 -3 -30 -12 -30 -7 0 -16 -7
-19 -15 -5 -12 -10 -13 -20 -4 -8 6 -14 8 -14 3 -1 -5 -7 2 -14 15 -9 16 -16
20 -20 12 -4 -7 -2 -18 4 -26 14 -16 3 -58 -12 -49 -6 4 -14 0 -19 -7 -12 -21
-22 -4 -23 41 -1 22 -5 39 -11 38 -5 -1 -9 -9 -7 -18 2 -11 -2 -10 -13 4 -8
11 -18 17 -22 13 -3 -4 2 -16 11 -26 10 -11 16 -26 13 -33 -2 -7 0 -24 5 -38
l9 -25 -25 24 c-31 29 -40 25 -21 -11 11 -22 11 -29 0 -38 -10 -8 -14 -5 -19
14 -3 13 -12 26 -20 29 -10 4 -13 1 -9 -9 3 -7 0 -14 -6 -14 -6 0 -11 -8 -11
-17 0 -10 -5 -25 -10 -33 -8 -11 -9 -7 -4 14 7 28 6 29 -23 23 -17 -3 -35 -1
-42 6 -8 8 -11 8 -11 -1 0 -9 -8 -8 -30 3 -26 13 -30 14 -30 1 0 -8 9 -18 21
-21 14 -5 18 -10 11 -17 -7 -7 -24 4 -52 31 -26 25 -52 41 -67 41 -14 0 -22 4
-18 10 4 6 15 8 26 5 10 -4 19 -2 19 3 0 5 -13 12 -29 14 -25 4 -30 0 -34 -19
-2 -14 3 -34 14 -47 23 -29 25 -48 4 -40 -26 10 -17 -31 16 -72 38 -47 99
-139 99 -148 0 -30 -115 73 -135 121 -8 19 -26 48 -39 63 -20 24 -25 26 -28
12 -3 -9 -16 -22 -29 -28 -162 -75 -198 -79 -303 -30 -120 55 -197 154 -212
272 -7 58 10 103 50 130 32 20 102 21 125 0 10 -9 30 -16 45 -16 15 0 36 -5
47 -11 17 -8 25 -6 46 15 16 16 37 26 54 26 34 0 85 -41 93 -75 6 -25 64 -67
80 -58 5 4 2 9 -7 12 -12 4 -14 10 -7 21 8 13 11 12 24 -5 18 -24 20 -52 4
-57 -7 -3 -2 -13 12 -26 29 -26 45 -29 35 -4 -4 9 -11 31 -15 48 -4 18 -10 37
-14 43 -11 16 10 13 24 -4 7 -8 16 -13 20 -10 10 6 0 55 -12 55 -5 0 -7 4 -4
9 5 8 -39 75 -75 114 -9 10 -20 32 -23 49 -3 18 -18 56 -32 87 -42 87 -61 152
-63 210 -1 33 -8 62 -17 72 -12 13 -13 18 -2 22 10 3 6 19 -16 62 -16 31 -36
59 -44 62 -7 3 -37 28 -64 54 -28 27 -55 49 -60 49 -21 0 -4 31 39 69 49 43
62 48 80 30 7 -7 17 -8 28 -2 15 9 14 12 -9 30 -14 12 -26 24 -26 28 0 4 -10
15 -22 25 -19 15 -20 20 -9 34 15 18 72 21 102 6 10 -6 30 -32 44 -58 l25 -47
-6 55 c-3 30 -6 57 -7 60 0 3 3 13 7 22 7 16 10 16 42 0 30 -14 36 -14 44 -2
6 10 4 17 -5 23 -8 4 -22 21 -30 37 -15 28 -14 30 11 47 14 9 45 18 68 19 161
11 242 29 343 76 12 6 29 8 38 4 13 -5 16 -2 11 10 -5 14 -1 15 31 10 21 -4
52 -8 68 -10 40 -4 107 -39 153 -80 32 -29 92 -66 106 -66 2 0 2 10 -2 22 -3
13 -1 19 5 15 13 -8 -8 67 -30 108 -7 15 -56 70 -108 122 -66 67 -110 103
-147 119 -52 24 -124 34 -92 14 12 -8 11 -10 -7 -10 -12 0 -24 4 -28 9 -3 6
-13 10 -23 10 -9 0 -64 4 -121 8 -104 9 -175 -3 -193 -30 -4 -7 -12 -7 -23 3
-13 11 -25 11 -70 0 -62 -15 -81 -7 -88 38 -3 15 -4 3 -4 -26z m296 4 c-7 -8
-93 -35 -97 -31 -7 7 53 34 77 35 13 0 22 -2 20 -4z m-149 -36 c-20 -13 -33
-13 -25 0 3 6 14 10 23 10 15 0 15 -2 2 -10z m118 -10 c-14 -4 -32 -11 -40
-15 -7 -3 -4 1 6 9 11 9 29 16 40 15 17 -1 16 -2 -6 -9z m1040 -1136 c37 -7
72 -38 72 -63 0 -19 -27 -24 -47 -8 -9 6 -18 5 -28 -3 -12 -10 -15 -10 -15 3
0 34 -59 45 -114 22 -13 -6 -17 -4 -15 4 3 7 27 21 54 31 63 22 57 21 93 14z
m-83 -73 c-3 -6 -18 -11 -33 -11 -29 0 -20 15 13 22 24 5 29 3 20 -11z m162
-83 c18 -18 33 -35 33 -39 0 -9 -97 -4 -123 6 -14 6 -20 2 -24 -14 -3 -11 -9
-21 -13 -21 -8 0 -50 -79 -50 -93 0 -4 6 -7 13 -7 7 0 17 -10 22 -22 6 -13 16
-24 23 -24 6 -1 17 -2 22 -3 6 0 10 -8 10 -16 0 -8 4 -15 9 -15 5 0 12 -7 15
-16 4 -12 2 -15 -9 -11 -8 4 -17 2 -20 -3 -4 -7 -13 -6 -25 0 -13 7 -19 6 -24
-6 -4 -10 -13 -13 -28 -9 -16 4 -19 3 -9 -3 18 -13 2 -21 -36 -18 -18 1 -40
11 -50 22 -18 19 -49 24 -72 10 -6 -4 -11 0 -11 11 -1 17 -2 16 -16 -2 -15
-19 -16 -19 -10 10 5 26 2 33 -24 50 -16 11 -30 27 -30 35 1 19 24 50 37 50 6
0 17 7 24 16 17 21 74 56 119 74 19 8 40 21 47 29 13 18 82 39 133 40 26 1 42
-7 67 -31z m78 -120 c19 -39 33 -73 31 -75 -2 -2 -19 10 -37 26 -18 17 -28 31
-21 31 20 0 -15 60 -36 60 -15 1 -15 2 2 15 11 8 21 15 23 15 2 0 19 -32 38
-72z m35 -122 c-14 -14 -22 -2 -14 18 5 14 9 15 15 4 4 -7 4 -17 -1 -22z
m-1200 -228 c0 -5 -9 -6 -20 -3 -12 4 -20 2 -20 -5 0 -6 -5 -8 -10 -5 -6 4 -5
12 4 21 9 8 13 22 10 32 -4 12 1 10 15 -7 12 -13 21 -28 21 -33z m-40 -173
c19 -14 30 -25 24 -25 -10 0 -73 49 -63 50 3 0 20 -11 39 -25z m-17 -24 c101
-46 337 -228 269 -206 -13 4 -57 27 -98 51 -46 27 -74 39 -74 30 0 -7 -12 -13
-30 -13 -21 0 -27 4 -20 11 15 15 12 22 -10 22 -13 0 -21 -9 -25 -28 -8 -33
-20 -36 -34 -9 -9 15 -7 20 9 24 23 6 27 27 5 27 -16 0 -38 -34 -28 -44 3 -3
-3 -6 -14 -6 -16 0 -19 5 -16 23 4 19 -1 26 -29 37 -54 22 -60 29 -38 52 11
12 17 25 14 29 -3 5 2 6 11 3 11 -5 14 -2 9 10 -10 25 27 20 99 -13z m157 -43
c0 -5 -9 -4 -20 2 -11 6 -18 15 -14 21 6 11 34 -7 34 -23z m43 -29 c4 -16 3
-18 -9 -8 -16 13 -19 29 -5 29 5 0 11 -9 14 -21z m-276 -35 c-3 -3 -12 -4 -19
-1 -8 3 -5 6 6 6 11 1 17 -2 13 -5z m223 -67 c0 -4 3 -6 8 -4 4 2 17 -6 30
-19 29 -31 22 -30 -24 1 -20 14 -46 25 -57 25 -16 0 -17 3 -7 15 9 11 16 12
31 2 10 -6 19 -15 19 -20z m-90 11 c0 -4 -6 -8 -14 -8 -8 0 -17 4 -20 8 -2 4
4 8 15 8 10 0 19 -4 19 -8z m1059 -132 c0 -44 -6 -133 -14 -196 l-13 -115 -1
95 c-2 125 -4 157 -13 166 -5 4 -8 31 -8 59 0 28 3 55 8 59 4 4 8 12 8 17 1 5
2 12 3 15 0 4 8 1 16 -6 11 -9 15 -33 14 -94z m-887 62 c-7 -7 -12 -8 -12 -2
0 14 12 26 19 19 2 -3 -1 -11 -7 -17z m53 -46 c-3 -3 -11 0 -18 7 -9 10 -8 11
6 5 10 -3 15 -9 12 -12z m1066 -244 c57 -96 48 -97 -12 0 -27 45 -54 82 -58
82 -5 0 -17 12 -26 28 -16 24 -14 23 20 -8 20 -19 54 -65 76 -102z m85 -212
c-5 -15 -26 40 -25 67 0 15 5 10 15 -17 8 -22 13 -45 10 -50z m23 -66 c0 -10
-3 -8 -9 5 -12 27 -12 43 0 25 5 -8 9 -22 9 -30z m-74 -108 c-3 -3 -11 0 -18
7 -9 10 -8 11 6 5 10 -3 15 -9 12 -12z"/>
<path d="M1000 859 c0 -5 5 -7 10 -4 6 3 10 8 10 11 0 2 -4 4 -10 4 -5 0 -10
-5 -10 -11z"/>
<path d="M2060 2991 c0 -5 -3 -16 -6 -25 -4 -11 -1 -16 10 -16 9 0 16 4 16 9
0 5 3 16 6 25 4 11 1 16 -10 16 -9 0 -16 -4 -16 -9z"/>
<path d="M2877 2985 c-7 -16 8 -29 23 -20 15 9 12 35 -4 35 -8 0 -16 -7 -19
-15z"/>
<path d="M910 2985 c0 -5 68 -35 79 -35 8 1 -61 39 -71 40 -5 0 -8 -2 -8 -5z"/>
<path d="M1796 2903 c-14 -14 -4 -42 20 -58 15 -9 24 -12 20 -7 -3 6 -2 13 3
16 5 4 8 14 6 24 -2 9 -4 19 -4 22 -1 8 -38 10 -45 3z"/>
<path d="M2035 2630 c4 -6 11 -8 16 -5 14 9 11 15 -7 15 -8 0 -12 -5 -9 -10z"/>
<path d="M2010 2603 c0 -7 7 -13 16 -13 9 0 18 -10 22 -22 5 -21 6 -21 13 -2
13 34 10 42 -21 46 -20 3 -30 0 -30 -9z"/>
<path d="M1 2594 c0 -11 3 -14 6 -6 3 7 2 16 -1 19 -3 4 -6 -2 -5 -13z"/>
<path d="M1895 2543 c-24 -77 -23 -77 -52 -58 -18 12 -28 14 -36 6 -6 -6 -19
-11 -29 -11 -32 0 -69 -71 -71 -136 -2 -56 -1 -58 37 -86 21 -15 49 -28 62
-28 13 0 26 -5 29 -10 7 -12 65 -10 65 2 0 4 5 8 10 8 6 0 10 -6 10 -14 0 -8
9 -18 20 -21 11 -3 20 -10 20 -15 0 -5 20 -18 44 -29 37 -16 46 -26 55 -58 6
-21 11 -43 11 -49 0 -6 9 -19 20 -29 24 -21 27 -14 4 9 -8 9 -11 16 -5 16 6 0
11 12 10 28 0 24 -1 25 -9 7 -8 -19 -9 -18 -11 5 -1 14 -3 34 -3 46 -1 12 -16
33 -33 48 -18 15 -33 36 -33 45 0 9 -9 51 -19 92 -11 41 -24 118 -30 171 -5
54 -13 102 -16 108 -15 24 -34 6 -50 -47z m7 -180 c17 -15 25 -43 12 -43 -5 0
-55 26 -74 38 -6 4 22 22 34 22 5 0 18 -7 28 -17z m38 -74 c0 -6 -4 -7 -10 -4
-5 3 -10 11 -10 16 0 6 5 7 10 4 6 -3 10 -11 10 -16z m120 -144 c11 -13 10
-14 -4 -9 -9 3 -16 10 -16 15 0 13 6 11 20 -6z"/>
<path d="M2252 2569 c-1 -9 -5 -32 -8 -50 -5 -26 -4 -31 5 -23 7 7 11 28 8 50
-2 22 -4 32 -5 23z"/>
<path d="M2407 2504 c-4 -4 -7 -17 -7 -28 0 -19 1 -19 17 -3 12 11 14 20 7 27
-6 6 -13 7 -17 4z"/>
<path d="M2251 2464 c0 -11 3 -14 6 -6 3 7 2 16 -1 19 -3 4 -6 -2 -5 -13z"/>
<path d="M2242 2413 c-9 -24 -9 -109 1 -119 14 -14 20 5 22 71 2 63 -8 84 -23
48z"/>
<path d="M2332 2418 c-7 -7 -12 -18 -12 -25 0 -13 34 -36 42 -27 3 3 8 -4 11
-16 4 -15 0 -20 -14 -20 -15 0 -19 -7 -19 -30 0 -35 41 -80 74 -81 12 0 32 -3
46 -5 43 -8 63 -5 71 7 6 10 11 10 25 -2 16 -13 17 -11 12 34 -7 56 -4 52 -45
60 -22 4 -37 2 -47 -8 -19 -20 -29 -19 -49 3 -21 23 -21 39 -1 60 15 14 15 17
-2 29 -10 7 -27 13 -39 13 -12 0 -25 5 -31 10 -7 7 -14 6 -22 -2z"/>
<path d="M1334 2385 c-27 -14 -56 -25 -65 -25 -9 0 -20 -7 -23 -15 -3 -9 -11
-15 -18 -14 -27 3 -37 -2 -73 -38 -58 -60 -84 -111 -82 -162 1 -26 7 -46 15
-49 7 -2 12 0 11 5 -5 29 5 55 32 82 17 17 36 31 44 31 16 0 30 -33 15 -38 -6
-2 -17 -19 -25 -38 -8 -19 -18 -34 -24 -34 -9 0 -4 -98 5 -109 2 -2 10 4 19
12 8 9 22 14 31 10 19 -7 73 45 74 72 1 38 12 63 31 68 12 3 19 0 19 -8 0 -16
51 -29 79 -20 13 4 18 12 14 28 -4 20 -3 20 9 6 19 -24 75 -34 95 -17 9 7 17
12 17 10 1 -2 14 0 29 3 27 7 27 8 12 31 -14 22 -14 24 4 24 30 0 34 17 11 48
-12 16 -22 35 -24 43 -8 43 -43 80 -94 99 -68 26 -78 25 -138 -5z m-89 -260
c-14 -28 -25 -40 -25 -29 0 21 38 89 46 81 3 -2 -7 -26 -21 -52z"/>
<path d="M1465 2079 c-16 -16 -25 -29 -19 -29 12 0 60 48 53 54 -2 2 -17 -9
-34 -25z"/>
<path d="M1360 2046 c-5 -5 -26 -10 -47 -12 -21 -2 -40 -3 -43 -4 -3 0 2 -5
10 -10 23 -15 150 11 150 30 0 12 -58 8 -70 -4z"/>
<path d="M1 1754 c0 -11 3 -14 6 -6 3 7 2 16 -1 19 -3 4 -6 -2 -5 -13z"/>
<path d="M2 1675 c0 -16 2 -22 5 -12 2 9 2 23 0 30 -3 6 -5 -1 -5 -18z"/>
<path d="M467 1442 c-45 -49 -39 -110 19 -193 33 -48 44 -37 37 36 -4 38 -2
55 8 61 16 9 129 13 129 4 0 -3 -7 -15 -15 -28 -13 -17 -13 -26 -5 -43 7 -11
9 -23 6 -26 -6 -7 19 -33 32 -33 6 0 22 14 37 32 24 29 29 30 39 16 9 -13 22
-15 54 -11 53 7 50 26 -4 33 -50 7 -59 13 -95 63 -16 23 -51 56 -76 74 -38 27
-56 33 -98 33 -37 0 -57 -5 -68 -18z"/>
<path d="M1040 1370 c0 -5 5 -10 11 -10 5 0 7 5 4 10 -3 6 -8 10 -11 10 -2 0
-4 -4 -4 -10z"/>
<path d="M1040 1314 c0 -12 7 -24 15 -28 19 -7 19 5 0 30 -14 19 -14 19 -15
-2z"/>
<path d="M1451 1294 c0 -11 3 -14 6 -6 3 7 2 16 -1 19 -3 4 -6 -2 -5 -13z"/>
<path d="M980 1270 c0 -5 5 -10 10 -10 6 0 10 5 10 10 0 6 -4 10 -10 10 -5 0
-10 -4 -10 -10z"/>
<path d="M1216 1252 c10 -18 20 -28 23 -21 2 6 -7 21 -19 33 l-23 21 19 -33z"/>
<path d="M870 1237 c0 -18 6 -26 25 -29 20 -4 23 -2 15 12 -5 9 -16 22 -24 30
-14 11 -16 9 -16 -13z"/>
<path d="M665 1153 c-43 -6 -54 -21 -31 -39 41 -29 116 -9 116 32 0 14 -21 16
-85 7z"/>
<path d="M0 822 c0 -67 2 -122 3 -122 2 0 19 7 37 16 27 14 34 14 41 3 5 -8 9
-19 9 -26 0 -13 14 -18 74 -29 35 -6 37 -5 28 12 -5 11 -7 25 -4 33 3 9 -1 11
-16 7 -17 -6 -19 -3 -15 13 8 32 -5 74 -22 67 -21 -8 -27 9 -13 39 9 21 9 28
-1 34 -7 5 -14 20 -14 35 -2 29 -5 30 -43 16 -21 -8 -31 -7 -45 6 -18 17 -19
13 -19 -104z"/>
<path d="M0 315 l0 -315 39 0 c66 0 101 11 101 30 0 10 5 20 11 22 9 3 13 100
19 421 0 20 5 27 20 27 13 0 20 7 20 19 0 25 54 39 76 20 11 -9 18 -9 26 -1 9
9 7 12 -9 12 -12 0 -25 5 -28 10 -3 6 -15 10 -26 10 -11 0 -45 9 -76 20 -70
24 -105 26 -97 5 4 -8 2 -21 -3 -28 -5 -6 -8 -22 -7 -34 1 -24 -4 -27 -30 -17
-15 6 -15 8 1 20 12 9 14 13 5 14 -9 0 -11 7 -7 19 6 20 -13 61 -27 61 -5 0
-8 -142 -8 -315z m175 245 c3 -5 1 -10 -4 -10 -6 0 -11 5 -11 10 0 6 2 10 4
10 3 0 8 -4 11 -10z m-125 -180 c0 -5 -4 -10 -10 -10 -5 0 -10 5 -10 10 0 6 5
10 10 10 6 0 10 -4 10 -10z m94 -315 c-4 -8 -10 -15 -15 -15 -5 0 -9 7 -9 15
0 8 7 15 15 15 9 0 12 -6 9 -15z"/>
<path d="M191 474 c0 -11 3 -14 6 -6 3 7 2 16 -1 19 -3 4 -6 -2 -5 -13z"/>
<path d="M191 438 c0 -9 -4 -25 -7 -35 -5 -17 -5 -17 6 0 6 10 9 25 7 35 -4
15 -5 15 -6 0z"/>
</g>
</svg>
